G04 #@! TF.GenerationSoftware,KiCad,Pcbnew,9.0.2*
G04 #@! TF.CreationDate,2025-07-05T11:04:00-07:00*
G04 #@! TF.ProjectId,Passive,50617373-6976-4652-9e6b-696361645f70,rev?*
G04 #@! TF.SameCoordinates,Original*
G04 #@! TF.FileFunction,Legend,Top*
G04 #@! TF.FilePolarity,Positive*
%FSLAX46Y46*%
G04 Gerber Fmt 4.6, Leading zero omitted, Abs format (unit mm)*
G04 Created by KiCad (PCBNEW 9.0.2) date 2025-07-05 11:04:00*
%MOMM*%
%LPD*%
G01*
G04 APERTURE LIST*
%ADD10C,0.150000*%
%ADD11C,0.120000*%
%ADD12C,2.700000*%
%ADD13R,1.700000X1.700000*%
%ADD14C,1.700000*%
G04 APERTURE END LIST*
D10*
X140976190Y-93954819D02*
X140976190Y-92954819D01*
X140976190Y-92954819D02*
X141214285Y-92954819D01*
X141214285Y-92954819D02*
X141357142Y-93002438D01*
X141357142Y-93002438D02*
X141452380Y-93097676D01*
X141452380Y-93097676D02*
X141499999Y-93192914D01*
X141499999Y-93192914D02*
X141547618Y-93383390D01*
X141547618Y-93383390D02*
X141547618Y-93526247D01*
X141547618Y-93526247D02*
X141499999Y-93716723D01*
X141499999Y-93716723D02*
X141452380Y-93811961D01*
X141452380Y-93811961D02*
X141357142Y-93907200D01*
X141357142Y-93907200D02*
X141214285Y-93954819D01*
X141214285Y-93954819D02*
X140976190Y-93954819D01*
X142404761Y-93954819D02*
X142404761Y-93431009D01*
X142404761Y-93431009D02*
X142357142Y-93335771D01*
X142357142Y-93335771D02*
X142261904Y-93288152D01*
X142261904Y-93288152D02*
X142071428Y-93288152D01*
X142071428Y-93288152D02*
X141976190Y-93335771D01*
X142404761Y-93907200D02*
X142309523Y-93954819D01*
X142309523Y-93954819D02*
X142071428Y-93954819D01*
X142071428Y-93954819D02*
X141976190Y-93907200D01*
X141976190Y-93907200D02*
X141928571Y-93811961D01*
X141928571Y-93811961D02*
X141928571Y-93716723D01*
X141928571Y-93716723D02*
X141976190Y-93621485D01*
X141976190Y-93621485D02*
X142071428Y-93573866D01*
X142071428Y-93573866D02*
X142309523Y-93573866D01*
X142309523Y-93573866D02*
X142404761Y-93526247D01*
X142738095Y-93288152D02*
X143119047Y-93288152D01*
X142880952Y-92954819D02*
X142880952Y-93811961D01*
X142880952Y-93811961D02*
X142928571Y-93907200D01*
X142928571Y-93907200D02*
X143023809Y-93954819D01*
X143023809Y-93954819D02*
X143119047Y-93954819D01*
X143880952Y-93954819D02*
X143880952Y-93431009D01*
X143880952Y-93431009D02*
X143833333Y-93335771D01*
X143833333Y-93335771D02*
X143738095Y-93288152D01*
X143738095Y-93288152D02*
X143547619Y-93288152D01*
X143547619Y-93288152D02*
X143452381Y-93335771D01*
X143880952Y-93907200D02*
X143785714Y-93954819D01*
X143785714Y-93954819D02*
X143547619Y-93954819D01*
X143547619Y-93954819D02*
X143452381Y-93907200D01*
X143452381Y-93907200D02*
X143404762Y-93811961D01*
X143404762Y-93811961D02*
X143404762Y-93716723D01*
X143404762Y-93716723D02*
X143452381Y-93621485D01*
X143452381Y-93621485D02*
X143547619Y-93573866D01*
X143547619Y-93573866D02*
X143785714Y-93573866D01*
X143785714Y-93573866D02*
X143880952Y-93526247D01*
X145119048Y-93954819D02*
X145119048Y-92954819D01*
X145595238Y-93288152D02*
X145595238Y-93954819D01*
X145595238Y-93383390D02*
X145642857Y-93335771D01*
X145642857Y-93335771D02*
X145738095Y-93288152D01*
X145738095Y-93288152D02*
X145880952Y-93288152D01*
X145880952Y-93288152D02*
X145976190Y-93335771D01*
X145976190Y-93335771D02*
X146023809Y-93431009D01*
X146023809Y-93431009D02*
X146023809Y-93954819D01*
X158404761Y-93954819D02*
X158404761Y-92954819D01*
X158404761Y-92954819D02*
X158642856Y-92954819D01*
X158642856Y-92954819D02*
X158785713Y-93002438D01*
X158785713Y-93002438D02*
X158880951Y-93097676D01*
X158880951Y-93097676D02*
X158928570Y-93192914D01*
X158928570Y-93192914D02*
X158976189Y-93383390D01*
X158976189Y-93383390D02*
X158976189Y-93526247D01*
X158976189Y-93526247D02*
X158928570Y-93716723D01*
X158928570Y-93716723D02*
X158880951Y-93811961D01*
X158880951Y-93811961D02*
X158785713Y-93907200D01*
X158785713Y-93907200D02*
X158642856Y-93954819D01*
X158642856Y-93954819D02*
X158404761Y-93954819D01*
X159833332Y-93954819D02*
X159833332Y-93431009D01*
X159833332Y-93431009D02*
X159785713Y-93335771D01*
X159785713Y-93335771D02*
X159690475Y-93288152D01*
X159690475Y-93288152D02*
X159499999Y-93288152D01*
X159499999Y-93288152D02*
X159404761Y-93335771D01*
X159833332Y-93907200D02*
X159738094Y-93954819D01*
X159738094Y-93954819D02*
X159499999Y-93954819D01*
X159499999Y-93954819D02*
X159404761Y-93907200D01*
X159404761Y-93907200D02*
X159357142Y-93811961D01*
X159357142Y-93811961D02*
X159357142Y-93716723D01*
X159357142Y-93716723D02*
X159404761Y-93621485D01*
X159404761Y-93621485D02*
X159499999Y-93573866D01*
X159499999Y-93573866D02*
X159738094Y-93573866D01*
X159738094Y-93573866D02*
X159833332Y-93526247D01*
X160166666Y-93288152D02*
X160547618Y-93288152D01*
X160309523Y-92954819D02*
X160309523Y-93811961D01*
X160309523Y-93811961D02*
X160357142Y-93907200D01*
X160357142Y-93907200D02*
X160452380Y-93954819D01*
X160452380Y-93954819D02*
X160547618Y-93954819D01*
X161309523Y-93954819D02*
X161309523Y-93431009D01*
X161309523Y-93431009D02*
X161261904Y-93335771D01*
X161261904Y-93335771D02*
X161166666Y-93288152D01*
X161166666Y-93288152D02*
X160976190Y-93288152D01*
X160976190Y-93288152D02*
X160880952Y-93335771D01*
X161309523Y-93907200D02*
X161214285Y-93954819D01*
X161214285Y-93954819D02*
X160976190Y-93954819D01*
X160976190Y-93954819D02*
X160880952Y-93907200D01*
X160880952Y-93907200D02*
X160833333Y-93811961D01*
X160833333Y-93811961D02*
X160833333Y-93716723D01*
X160833333Y-93716723D02*
X160880952Y-93621485D01*
X160880952Y-93621485D02*
X160976190Y-93573866D01*
X160976190Y-93573866D02*
X161214285Y-93573866D01*
X161214285Y-93573866D02*
X161309523Y-93526247D01*
X162738095Y-92954819D02*
X162928571Y-92954819D01*
X162928571Y-92954819D02*
X163023809Y-93002438D01*
X163023809Y-93002438D02*
X163119047Y-93097676D01*
X163119047Y-93097676D02*
X163166666Y-93288152D01*
X163166666Y-93288152D02*
X163166666Y-93621485D01*
X163166666Y-93621485D02*
X163119047Y-93811961D01*
X163119047Y-93811961D02*
X163023809Y-93907200D01*
X163023809Y-93907200D02*
X162928571Y-93954819D01*
X162928571Y-93954819D02*
X162738095Y-93954819D01*
X162738095Y-93954819D02*
X162642857Y-93907200D01*
X162642857Y-93907200D02*
X162547619Y-93811961D01*
X162547619Y-93811961D02*
X162500000Y-93621485D01*
X162500000Y-93621485D02*
X162500000Y-93288152D01*
X162500000Y-93288152D02*
X162547619Y-93097676D01*
X162547619Y-93097676D02*
X162642857Y-93002438D01*
X162642857Y-93002438D02*
X162738095Y-92954819D01*
X164023809Y-93288152D02*
X164023809Y-93954819D01*
X163595238Y-93288152D02*
X163595238Y-93811961D01*
X163595238Y-93811961D02*
X163642857Y-93907200D01*
X163642857Y-93907200D02*
X163738095Y-93954819D01*
X163738095Y-93954819D02*
X163880952Y-93954819D01*
X163880952Y-93954819D02*
X163976190Y-93907200D01*
X163976190Y-93907200D02*
X164023809Y-93859580D01*
X164357143Y-93288152D02*
X164738095Y-93288152D01*
X164500000Y-92954819D02*
X164500000Y-93811961D01*
X164500000Y-93811961D02*
X164547619Y-93907200D01*
X164547619Y-93907200D02*
X164642857Y-93954819D01*
X164642857Y-93954819D02*
X164738095Y-93954819D01*
X159459819Y-75499999D02*
X158459819Y-75499999D01*
X158459819Y-75499999D02*
X159459819Y-74928571D01*
X159459819Y-74928571D02*
X158459819Y-74928571D01*
X159412200Y-74071428D02*
X159459819Y-74166666D01*
X159459819Y-74166666D02*
X159459819Y-74357142D01*
X159459819Y-74357142D02*
X159412200Y-74452380D01*
X159412200Y-74452380D02*
X159316961Y-74499999D01*
X159316961Y-74499999D02*
X158936009Y-74499999D01*
X158936009Y-74499999D02*
X158840771Y-74452380D01*
X158840771Y-74452380D02*
X158793152Y-74357142D01*
X158793152Y-74357142D02*
X158793152Y-74166666D01*
X158793152Y-74166666D02*
X158840771Y-74071428D01*
X158840771Y-74071428D02*
X158936009Y-74023809D01*
X158936009Y-74023809D02*
X159031247Y-74023809D01*
X159031247Y-74023809D02*
X159126485Y-74499999D01*
X159459819Y-73452380D02*
X159412200Y-73547618D01*
X159412200Y-73547618D02*
X159364580Y-73595237D01*
X159364580Y-73595237D02*
X159269342Y-73642856D01*
X159269342Y-73642856D02*
X158983628Y-73642856D01*
X158983628Y-73642856D02*
X158888390Y-73595237D01*
X158888390Y-73595237D02*
X158840771Y-73547618D01*
X158840771Y-73547618D02*
X158793152Y-73452380D01*
X158793152Y-73452380D02*
X158793152Y-73309523D01*
X158793152Y-73309523D02*
X158840771Y-73214285D01*
X158840771Y-73214285D02*
X158888390Y-73166666D01*
X158888390Y-73166666D02*
X158983628Y-73119047D01*
X158983628Y-73119047D02*
X159269342Y-73119047D01*
X159269342Y-73119047D02*
X159364580Y-73166666D01*
X159364580Y-73166666D02*
X159412200Y-73214285D01*
X159412200Y-73214285D02*
X159459819Y-73309523D01*
X159459819Y-73309523D02*
X159459819Y-73452380D01*
X159459819Y-72690475D02*
X158459819Y-72690475D01*
X158459819Y-72690475D02*
X158459819Y-72309523D01*
X158459819Y-72309523D02*
X158507438Y-72214285D01*
X158507438Y-72214285D02*
X158555057Y-72166666D01*
X158555057Y-72166666D02*
X158650295Y-72119047D01*
X158650295Y-72119047D02*
X158793152Y-72119047D01*
X158793152Y-72119047D02*
X158888390Y-72166666D01*
X158888390Y-72166666D02*
X158936009Y-72214285D01*
X158936009Y-72214285D02*
X158983628Y-72309523D01*
X158983628Y-72309523D02*
X158983628Y-72690475D01*
X159459819Y-71690475D02*
X158793152Y-71690475D01*
X158459819Y-71690475D02*
X158507438Y-71738094D01*
X158507438Y-71738094D02*
X158555057Y-71690475D01*
X158555057Y-71690475D02*
X158507438Y-71642856D01*
X158507438Y-71642856D02*
X158459819Y-71690475D01*
X158459819Y-71690475D02*
X158555057Y-71690475D01*
X159459819Y-71309523D02*
X158793152Y-70785714D01*
X158793152Y-71309523D02*
X159459819Y-70785714D01*
X159412200Y-70023809D02*
X159459819Y-70119047D01*
X159459819Y-70119047D02*
X159459819Y-70309523D01*
X159459819Y-70309523D02*
X159412200Y-70404761D01*
X159412200Y-70404761D02*
X159316961Y-70452380D01*
X159316961Y-70452380D02*
X158936009Y-70452380D01*
X158936009Y-70452380D02*
X158840771Y-70404761D01*
X158840771Y-70404761D02*
X158793152Y-70309523D01*
X158793152Y-70309523D02*
X158793152Y-70119047D01*
X158793152Y-70119047D02*
X158840771Y-70023809D01*
X158840771Y-70023809D02*
X158936009Y-69976190D01*
X158936009Y-69976190D02*
X159031247Y-69976190D01*
X159031247Y-69976190D02*
X159126485Y-70452380D01*
X159459819Y-69404761D02*
X159412200Y-69499999D01*
X159412200Y-69499999D02*
X159316961Y-69547618D01*
X159316961Y-69547618D02*
X158459819Y-69547618D01*
D11*
X149155000Y-92350000D02*
X147885000Y-92350000D01*
X149155000Y-91080000D02*
X149155000Y-92350000D01*
X146807642Y-88970000D02*
X146495000Y-88970000D01*
X146807642Y-88110000D02*
X146495000Y-88110000D01*
X146807642Y-86430000D02*
X146495000Y-86430000D01*
X146807642Y-85570000D02*
X146495000Y-85570000D01*
X146725000Y-91510000D02*
X146495000Y-91510000D01*
X146725000Y-90650000D02*
X146495000Y-90650000D01*
X146495000Y-92460000D02*
X146495000Y-84620000D01*
X146495000Y-89810000D02*
X143735000Y-89810000D01*
X146495000Y-87270000D02*
X143735000Y-87270000D01*
X146495000Y-84620000D02*
X143735000Y-84620000D01*
X143735000Y-92460000D02*
X146495000Y-92460000D01*
X143735000Y-88970000D02*
X137735000Y-88970000D01*
X143735000Y-86430000D02*
X137735000Y-86430000D01*
X143735000Y-84620000D02*
X143735000Y-92460000D01*
X137735000Y-88970000D02*
X137735000Y-88110000D01*
X137735000Y-88110000D02*
X143735000Y-88110000D01*
X137735000Y-86430000D02*
X137735000Y-85570000D01*
X137735000Y-85570000D02*
X143735000Y-85570000D01*
X143735000Y-91510000D02*
X137735000Y-91510000D01*
X137735000Y-90650000D01*
X143735000Y-90650000D01*
X143735000Y-91510000D01*
G36*
X143735000Y-91510000D02*
G01*
X137735000Y-91510000D01*
X137735000Y-90650000D01*
X143735000Y-90650000D01*
X143735000Y-91510000D01*
G37*
X161265000Y-85530000D02*
X167265000Y-85530000D01*
X167265000Y-86390000D01*
X161265000Y-86390000D01*
X161265000Y-85530000D01*
G36*
X161265000Y-85530000D02*
G01*
X167265000Y-85530000D01*
X167265000Y-86390000D01*
X161265000Y-86390000D01*
X161265000Y-85530000D01*
G37*
X167265000Y-91470000D02*
X161265000Y-91470000D01*
X167265000Y-90610000D02*
X167265000Y-91470000D01*
X167265000Y-88930000D02*
X161265000Y-88930000D01*
X167265000Y-88070000D02*
X167265000Y-88930000D01*
X161265000Y-92420000D02*
X161265000Y-84580000D01*
X161265000Y-90610000D02*
X167265000Y-90610000D01*
X161265000Y-88070000D02*
X167265000Y-88070000D01*
X161265000Y-84580000D02*
X158505000Y-84580000D01*
X158505000Y-92420000D02*
X161265000Y-92420000D01*
X158505000Y-89770000D02*
X161265000Y-89770000D01*
X158505000Y-87230000D02*
X161265000Y-87230000D01*
X158505000Y-84580000D02*
X158505000Y-92420000D01*
X158275000Y-86390000D02*
X158505000Y-86390000D01*
X158275000Y-85530000D02*
X158505000Y-85530000D01*
X158192358Y-91470000D02*
X158505000Y-91470000D01*
X158192358Y-90610000D02*
X158505000Y-90610000D01*
X158192358Y-88930000D02*
X158505000Y-88930000D01*
X158192358Y-88070000D02*
X158505000Y-88070000D01*
X155845000Y-85960000D02*
X155845000Y-84690000D01*
X155845000Y-84690000D02*
X157115000Y-84690000D01*
X149885000Y-77215000D02*
X157565000Y-77215000D01*
X149885000Y-77215000D02*
X149885000Y-74555000D01*
X157565000Y-77215000D02*
X157565000Y-74555000D01*
X147285000Y-75885000D02*
X147285000Y-74555000D01*
X147285000Y-74555000D02*
X148615000Y-74555000D01*
X149885000Y-74555000D02*
X157565000Y-74555000D01*
%LPC*%
D12*
X152500000Y-81500000D03*
D13*
X147885000Y-91080000D03*
D14*
X147885000Y-88540000D03*
X147885000Y-86000000D03*
X157115000Y-91040000D03*
X157115000Y-88500000D03*
D13*
X157115000Y-85960000D03*
X148615000Y-75885000D03*
D14*
X151155000Y-75885000D03*
X153695000Y-75885000D03*
X156235000Y-75885000D03*
%LPD*%
M02*
