G04 #@! TF.GenerationSoftware,KiCad,Pcbnew,9.0.2*
G04 #@! TF.CreationDate,2025-07-05T11:04:00-07:00*
G04 #@! TF.ProjectId,Passive,50617373-6976-4652-9e6b-696361645f70,rev?*
G04 #@! TF.SameCoordinates,Original*
G04 #@! TF.FileFunction,Copper,L1,Top*
G04 #@! TF.FilePolarity,Positive*
%FSLAX46Y46*%
G04 Gerber Fmt 4.6, Leading zero omitted, Abs format (unit mm)*
G04 Created by KiCad (PCBNEW 9.0.2) date 2025-07-05 11:04:00*
%MOMM*%
%LPD*%
G01*
G04 APERTURE LIST*
G04 #@! TA.AperFunction,ComponentPad*
%ADD10R,1.700000X1.700000*%
G04 #@! TD*
G04 #@! TA.AperFunction,ComponentPad*
%ADD11C,1.700000*%
G04 #@! TD*
G04 #@! TA.AperFunction,Conductor*
%ADD12C,0.200000*%
G04 #@! TD*
G04 #@! TA.AperFunction,Conductor*
%ADD13C,1.000000*%
G04 #@! TD*
G04 APERTURE END LIST*
D10*
X147885000Y-91080000D03*
D11*
X147885000Y-88540000D03*
X147885000Y-86000000D03*
X157115000Y-91040000D03*
X157115000Y-88500000D03*
D10*
X157115000Y-85960000D03*
X148615000Y-75885000D03*
D11*
X151155000Y-75885000D03*
X153695000Y-75885000D03*
X156235000Y-75885000D03*
D12*
X157115000Y-91040000D02*
X162960000Y-91040000D01*
X162960000Y-91040000D02*
X164000000Y-90000000D01*
X164000000Y-90000000D02*
X164000000Y-82000000D01*
X164000000Y-82000000D02*
X157885000Y-75885000D01*
X157885000Y-75885000D02*
X156235000Y-75885000D01*
X143000000Y-90000000D02*
X143000000Y-79500000D01*
X143000000Y-79500000D02*
X146615000Y-75885000D01*
X146615000Y-75885000D02*
X148615000Y-75885000D01*
X147885000Y-91080000D02*
X144080000Y-91080000D01*
X144080000Y-91080000D02*
X143000000Y-90000000D01*
D13*
X151155000Y-75885000D02*
X151155000Y-77345000D01*
X151155000Y-77345000D02*
X147885000Y-80615000D01*
X147885000Y-80615000D02*
X147885000Y-86000000D01*
X147885000Y-86000000D02*
X148000000Y-85885000D01*
X147885000Y-86000000D02*
X157075000Y-86000000D01*
X157075000Y-86000000D02*
X157115000Y-85960000D01*
D12*
X151115000Y-78385000D02*
X151155000Y-78385000D01*
M02*
